<?xml version="1.0" standalone="no"?><!DOCTYPE svg PUBLIC "-//W3C//DTD SVG 1.1//EN" "http://www.w3.org/Graphics/SVG/1.1/DTD/svg11.dtd"><svg t="1589023491526" class="icon" viewBox="0 0 1024 1024" version="1.1" xmlns="http://www.w3.org/2000/svg" p-id="542" width="200" height="200" xmlns:xlink="http://www.w3.org/1999/xlink"><defs><style type="text/css"></style></defs><path d="M341.333333 170.666667h341.333334a341.333333 341.333333 0 1 1 0 682.666666H341.333333A341.333333 341.333333 0 1 1 341.333333 170.666667z m195.128889 145.009777H449.877333l-85.333333 277.048889-85.447111-277.048889H193.080889l140.344889 425.187556h62.122666L536.462222 315.676444z m293.262222 302.136889V438.670222c0-81.237333-59.733333-126.577778-129.024-126.577778-69.290667 0-129.592889 45.340444-129.592888 126.577778v179.2c0 81.180444 60.302222 126.577778 129.592888 126.577778s129.024-45.397333 129.024-126.634667z m-77.653333-0.568889c0 35.84-20.935111 57.287111-51.370667 57.287112s-51.939556-21.447111-51.939555-57.287112V439.864889c0-35.84 21.504-57.912889 51.939555-57.912889s51.370667 22.072889 51.370667 57.912889v177.379555z" fill="#DCA301" p-id="543" data-spm-anchor-id="a313x.7781069.0.i2" class=""></path></svg>