<?xml version="1.0" encoding="iso-8859-1"?>
<!-- Generator: Adobe Illustrator 19.0.0, SVG Export Plug-In . SVG Version: 6.00 Build 0)  -->
<svg version="1.1" id="Capa_1" xmlns="http://www.w3.org/2000/svg" xmlns:xlink="http://www.w3.org/1999/xlink" x="0px" y="0px"
	 viewBox="0 0 368 368" style="enable-background:new 0 0 368 368;" xml:space="preserve">
<circle style="fill:#CCE4FF;" cx="184" cy="184" r="80"/>
<g>
	<path style="fill:#007AFF;" d="M184,64c4.416,0,8-3.584,8-8V8c0-4.416-3.584-8-8-8s-8,3.584-8,8v48C176,60.416,179.584,64,184,64z"
		/>
	<path style="fill:#007AFF;" d="M176,312v48c0,4.416,3.584,8,8,8c4.416,0,8-3.584,8-8v-48c0-4.416-3.584-8-8-8S176,307.584,176,312z
		"/>
	<path style="fill:#007AFF;" d="M360,176h-48c-4.416,0-8,3.584-8,8c0,4.416,3.584,8,8,8h48c4.416,0,8-3.584,8-8S364.416,176,360,176
		z"/>
	<path style="fill:#007AFF;" d="M8,192h48c4.416,0,8-3.584,8-8s-3.584-8-8-8H8c-4.416,0-8,3.584-8,8C0,188.416,3.584,192,8,192z"/>
	<path style="fill:#007AFF;" d="M266.344,266.344c-3.128,3.128-3.128,8.184,0,11.312l40,40c1.56,1.56,3.608,2.344,5.656,2.344
		s4.096-0.784,5.656-2.344c3.128-3.128,3.128-8.184,0-11.312l-40-40C274.528,263.216,269.472,263.216,266.344,266.344z"/>
	<path style="fill:#007AFF;" d="M90.344,101.656C91.904,103.216,93.952,104,96,104s4.096-0.784,5.656-2.344
		c3.128-3.128,3.128-8.184,0-11.312l-40-40c-3.128-3.128-8.184-3.128-11.312,0s-3.128,8.184,0,11.312L90.344,101.656z"/>
	<path style="fill:#007AFF;" d="M90.344,266.344l-40,40c-3.128,3.128-3.128,8.184,0,11.312C51.904,319.216,53.952,320,56,320
		c2.048,0,4.096-0.784,5.656-2.344l40-40c3.128-3.128,3.128-8.184,0-11.312S93.472,263.216,90.344,266.344z"/>
	<path style="fill:#007AFF;" d="M272,104c2.048,0,4.096-0.784,5.656-2.344l40-40c3.128-3.128,3.128-8.184,0-11.312
		s-8.184-3.128-11.312,0l-40,40c-3.128,3.128-3.128,8.184,0,11.312C267.904,103.216,269.952,104,272,104z"/>
	<path style="fill:#007AFF;" d="M184,272c48.52,0,88-39.48,88-88s-39.48-88-88-88s-88,39.48-88,88S135.48,272,184,272z M184,112
		c39.696,0,72,32.304,72,72s-32.304,72-72,72s-72-32.304-72-72S144.304,112,184,112z"/>
</g>
<g>
</g>
<g>
</g>
<g>
</g>
<g>
</g>
<g>
</g>
<g>
</g>
<g>
</g>
<g>
</g>
<g>
</g>
<g>
</g>
<g>
</g>
<g>
</g>
<g>
</g>
<g>
</g>
<g>
</g>
</svg>
