<?xml version="1.0" encoding="iso-8859-1"?>
<!-- Generator: Adobe Illustrator 19.0.0, SVG Export Plug-In . SVG Version: 6.00 Build 0)  -->
<svg version="1.1" id="Capa_1" xmlns="http://www.w3.org/2000/svg" xmlns:xlink="http://www.w3.org/1999/xlink" x="0px" y="0px"
	 viewBox="0 0 368 368" style="enable-background:new 0 0 368 368;" xml:space="preserve">
<path style="fill:#CCE4FF;" d="M73.12,120.08C80.88,65.76,127.6,24,184,24s103.12,41.76,110.88,96.08c0.4-0.08,0.72-0.08,1.12-0.08
	c35.36,0,64,28.64,64,64s-28.64,64-64,64H72c-35.36,0-64-28.64-64-64s28.64-64,64-64C72.4,120,72.72,120,73.12,120.08z"/>
<g>
	<path style="fill:#007AFF;" d="M301.528,112.28C290.36,56.96,241.064,16,184,16S77.64,56.96,66.472,112.28
		C29.352,115.12,0,146.168,0,184c0,39.696,32.304,72,72,72h16c4.416,0,8-3.584,8-8s-3.584-8-8-8H72c-30.88,0-56-25.12-56-56
		s25.12-56,55.6-56.072c0.088,0.016,0.184,0.016,0.28,0.024c0.04,0.008,0.072,0.032,0.112,0.04c0.064,0.008,0.12-0.016,0.176-0.008
		c0.32,0.04,0.632,0.096,0.952,0.096c4.168,0,8.456,0.544,12.752,1.624c0.312,0.136,0.64,0.248,0.976,0.336
		c14.08,3.84,26.352,13.312,33.664,25.968c2.208,3.824,7.096,5.136,10.928,2.92c3.824-2.208,5.136-7.104,2.92-10.928
		c-9.208-15.936-24.528-27.936-42.168-33.072c-0.368-0.168-0.752-0.304-1.152-0.408c-2.8-0.752-5.6-1.32-8.4-1.72
		C93.328,66.184,135.448,32,184,32s90.672,34.184,101.36,80.792c-2.8,0.408-5.6,0.968-8.4,1.72c-0.392,0.104-0.776,0.24-1.136,0.4
		c-17.648,5.136-32.984,17.144-42.192,33.08c-2.208,3.832-0.904,8.72,2.92,10.928c3.824,2.216,8.72,0.904,10.928-2.92
		c7.312-12.656,19.584-22.12,33.664-25.968c0.336-0.096,0.656-0.2,0.968-0.336c4.304-1.08,8.592-1.624,12.768-1.624
		c0.504,0,0.624,0.016,1.12-0.08c30.88,0,56,25.12,56,56s-25.12,56-56,56h-16c-4.416,0-8,3.584-8,8s3.584,8,8,8h16
		c39.696,0,72-32.304,72-72C368,146.168,338.648,115.12,301.528,112.28z"/>
	<path style="fill:#007AFF;" d="M149.192,351.496C150.12,351.832,151.064,352,152,352c3.24,0,6.288-1.984,7.496-5.192l48-128
		c1.552-4.136-0.544-8.744-4.68-10.304c-4.128-1.52-8.744,0.544-10.304,4.68l-48,128
		C142.96,345.328,145.056,349.936,149.192,351.496z"/>
	<path style="fill:#007AFF;" d="M216,320c3.352,0,6.472-2.12,7.592-5.472l32-96c1.4-4.192-0.864-8.72-5.056-10.12
		c-4.208-1.416-8.728,0.872-10.12,5.056l-32,96c-1.4,4.192,0.864,8.72,5.056,10.12C214.312,319.872,215.168,320,216,320z"/>
	<path style="fill:#007AFF;" d="M155.08,208.616c-4.088-1.72-8.768,0.232-10.464,4.304l-40,96c-1.696,4.08,0.224,8.76,4.304,10.464
		c1.008,0.424,2.056,0.616,3.08,0.616c3.136,0,6.112-1.856,7.384-4.928l40-96C161.08,215,159.16,210.32,155.08,208.616z"/>
</g>
<g>
</g>
<g>
</g>
<g>
</g>
<g>
</g>
<g>
</g>
<g>
</g>
<g>
</g>
<g>
</g>
<g>
</g>
<g>
</g>
<g>
</g>
<g>
</g>
<g>
</g>
<g>
</g>
<g>
</g>
</svg>
