<?xml version="1.0" encoding="iso-8859-1"?>
<!-- Generator: Adobe Illustrator 19.0.0, SVG Export Plug-In . SVG Version: 6.00 Build 0)  -->
<svg version="1.1" id="Capa_1" xmlns="http://www.w3.org/2000/svg" xmlns:xlink="http://www.w3.org/1999/xlink" x="0px" y="0px"
	 viewBox="0 0 368 368" style="enable-background:new 0 0 368 368;" xml:space="preserve">
<path style="fill:#CCE4FF;" d="M120,215.68C120.08,71.92,184,40,184,40s63.92,31.92,64,175.68c-1.68,0.16-3.44,0.32-5.36,0.32
	c-29.36,0-29.36-32-58.64-32c-29.36,0-29.36,32-58.72,32C123.44,216,121.68,215.84,120,215.68z"/>
<path style="fill:#007AFF;" d="M192,32.2V8c0-4.416-3.584-8-8-8s-8,3.584-8,8v24.2C78.24,36.408,0,117.224,0,216
	c0,4.416,3.584,8,8,8c18.152,0,27.592-10.304,35.176-18.576C50.048,197.92,55.472,192,66.64,192
	c11.136,0,16.552,5.928,23.416,13.424c6.464,7.064,13.8,14.936,26.616,17.672c1.016,0.456,2.128,0.744,3.328,0.744l0,0
	c0.2,0,0.368-0.104,0.56-0.12c1.536,0.136,3.072,0.28,4.72,0.28c18.192,0,27.656-10.312,35.256-18.592
	c4.992-5.44,9.248-10.016,15.464-12.136V328c0,22.056,17.944,40,40,40s40-17.944,40-40c0-4.416-3.576-8-8-8s-8,3.584-8,8
	c0,13.232-10.768,24-24,24s-24-10.768-24-24V193.288c6.168,2.12,10.408,6.68,15.376,12.096c7.6,8.296,17.056,18.616,35.264,18.616
	c2.192,0,4.2-0.168,6.568-0.416c13.984-2.136,21.768-10.648,28.632-18.152c6.864-7.504,12.288-13.432,23.44-13.432
	c11.168,0,16.592,5.92,23.464,13.408C332.344,213.688,341.808,224,360,224c4.424,0,8-3.584,8-8C368,117.224,289.76,36.408,192,32.2z
	 M101.856,194.624C94.272,186.328,84.824,176,66.64,176c-18.208,0-27.664,10.32-35.264,18.616
	c-4.904,5.352-9.072,9.904-15.12,12.056c4.416-80.208,65.416-145.416,143.616-156.744c-19.328,21.376-45.552,66.368-47.728,154.2
	C108.528,201.72,105.376,198.464,101.856,194.624z M219.168,194.576C211.592,186.304,202.152,176,184,176
	c-18.192,0-27.656,10.312-35.256,18.592c-6.256,6.816-11.36,12.28-20.632,13.216c1.968-110.264,43.352-149.064,55.88-158.272
	c12.576,9.256,53.856,48.048,55.888,158.28C230.56,206.896,225.448,201.424,219.168,194.576z M336.536,194.592
	c-7.6-8.28-17.056-18.592-35.256-18.592s-27.656,10.336-35.248,18.64c-3.52,3.848-6.664,7.104-10.2,9.496
	c-2.176-87.84-28.392-132.848-47.72-154.208c78.216,11.32,139.224,76.536,143.632,156.752
	C345.648,204.528,341.472,199.968,336.536,194.592z"/>
<g>
</g>
<g>
</g>
<g>
</g>
<g>
</g>
<g>
</g>
<g>
</g>
<g>
</g>
<g>
</g>
<g>
</g>
<g>
</g>
<g>
</g>
<g>
</g>
<g>
</g>
<g>
</g>
<g>
</g>
</svg>
