<?xml version="1.0" encoding="iso-8859-1"?>
<!-- Generator: Adobe Illustrator 19.0.0, SVG Export Plug-In . SVG Version: 6.00 Build 0)  -->
<svg version="1.1" id="Capa_1" xmlns="http://www.w3.org/2000/svg" xmlns:xlink="http://www.w3.org/1999/xlink" x="0px" y="0px"
	 viewBox="0 0 368.004 368.004" style="enable-background:new 0 0 368.004 368.004;" xml:space="preserve">
<path style="fill:#007AFF;" d="M365.658,130.346c-3.128-3.128-8.184-3.128-11.312,0l-45.656,45.656H203.314l72-72h68.688
	c4.416,0,8-3.584,8-8s-3.584-8-8-8h-52.688l26.344-26.344c3.128-3.128,3.128-8.184,0-11.312s-8.184-3.128-11.312,0L280.002,76.69
	V24.002c0-4.416-3.584-8-8-8s-8,3.584-8,8V92.69l-72,72V59.314l45.656-45.656c3.128-3.128,3.128-8.184,0-11.312
	s-8.184-3.128-11.312,0L192.002,36.69V8.002c0-4.416-3.584-8-8-8s-8,3.584-8,8V36.69L141.658,2.346
	c-3.128-3.128-8.184-3.128-11.312,0s-3.128,8.184,0,11.312l45.656,45.656V164.69l-72-72V24.002c0-4.416-3.584-8-8-8s-8,3.584-8,8
	V76.69L61.658,50.346c-3.128-3.128-8.184-3.128-11.312,0s-3.128,8.184,0,11.312L76.69,88.002H24.002c-4.416,0-8,3.584-8,8
	s3.584,8,8,8H92.69l72,72H59.314l-45.656-45.656c-3.128-3.128-8.184-3.128-11.312,0c-3.128,3.128-3.128,8.184,0,11.312
	l34.344,34.344H8.002c-4.416,0-8,3.584-8,8c0,4.416,3.584,8,8,8H36.69L2.346,226.346c-3.128,3.128-3.128,8.184,0,11.312
	c1.56,1.56,3.608,2.344,5.656,2.344s4.096-0.784,5.656-2.344l45.656-45.656H164.69l-72,72H24.002c-4.416,0-8,3.584-8,8s3.584,8,8,8
	H76.69l-26.344,26.344c-3.128,3.128-3.128,8.184,0,11.312c1.56,1.56,3.608,2.344,5.656,2.344c2.048,0,4.096-0.784,5.656-2.344
	l26.344-26.344v52.688c0,4.416,3.584,8,8,8s8-3.584,8-8v-68.688l72-72V308.69l-45.656,45.656c-3.128,3.128-3.128,8.184,0,11.312
	s8.184,3.128,11.312,0l34.344-34.344v28.688c0,4.416,3.584,8,8,8c4.416,0,8-3.584,8-8v-28.688l34.344,34.344
	c1.56,1.56,3.608,2.344,5.656,2.344s4.096-0.784,5.656-2.344c3.128-3.128,3.128-8.184,0-11.312l-45.656-45.656V203.314l72,72v68.688
	c0,4.416,3.584,8,8,8s8-3.584,8-8v-52.688l26.344,26.344c1.56,1.56,3.608,2.344,5.656,2.344s4.096-0.784,5.656-2.344
	c3.128-3.128,3.128-8.184,0-11.312l-26.344-26.344h52.688c4.416,0,8-3.584,8-8s-3.584-8-8-8h-68.688l-72-72H308.69l45.656,45.656
	c1.56,1.56,3.608,2.344,5.656,2.344s4.096-0.784,5.656-2.344c3.128-3.128,3.128-8.184,0-11.312l-34.344-34.344h28.688
	c4.416,0,8-3.584,8-8s-3.584-8-8-8h-28.688l34.344-34.344C368.786,138.53,368.786,133.474,365.658,130.346z"/>
<g>
</g>
<g>
</g>
<g>
</g>
<g>
</g>
<g>
</g>
<g>
</g>
<g>
</g>
<g>
</g>
<g>
</g>
<g>
</g>
<g>
</g>
<g>
</g>
<g>
</g>
<g>
</g>
<g>
</g>
</svg>
