<?xml version="1.0" encoding="iso-8859-1"?>
<!-- Generator: Adobe Illustrator 19.0.0, SVG Export Plug-In . SVG Version: 6.00 Build 0)  -->
<svg version="1.1" id="Capa_1" xmlns="http://www.w3.org/2000/svg" xmlns:xlink="http://www.w3.org/1999/xlink" x="0px" y="0px"
	 viewBox="0 0 368 368" style="enable-background:new 0 0 368 368;" xml:space="preserve">
<path style="fill:#CCE4FF;" d="M72,359.991c0-61.856,50.144-112,112-112s112,50.144,112,112H72z"/>
<g>
	<path style="fill:#007AFF;" d="M360,351.991h-56.392c-1.736-26.304-11.952-50.976-29.376-70.912l43.424-43.432
		c3.128-3.128,3.128-8.184,0-11.312s-8.184-3.128-11.312,0l-43.424,43.424c-19.928-17.424-44.6-27.648-70.92-29.376v-56.392
		c0-4.416-3.576-8-8-8s-8,3.584-8,8v56.392c-26.312,1.728-50.984,11.952-70.92,29.384l-43.424-43.424
		c-3.128-3.128-8.184-3.128-11.312,0s-3.128,8.184,0,11.312l43.424,43.432c-17.424,19.928-27.648,44.6-29.376,70.912H8
		c-4.424,0-8,3.584-8,8s3.576,8,8,8h352c4.424,0,8-3.584,8-8S364.424,351.991,360,351.991z M110.448,286.463
		c19.72-19.648,45.84-30.472,73.552-30.472s53.832,10.824,73.528,30.448c17.744,17.816,28.2,40.856,30.08,65.552H80.392
		C82.272,327.295,92.728,304.255,110.448,286.463z"/>
	<path style="fill:#007AFF;" d="M130.344,61.647c3.128,3.128,8.184,3.128,11.312,0L176,27.303v108.688c0,4.416,3.576,8,8,8
		c4.424,0,8-3.584,8-8V27.303l34.344,34.344c1.56,1.56,3.608,2.344,5.656,2.344s4.096-0.784,5.656-2.344
		c3.128-3.128,3.128-8.184,0-11.312L189.664,2.343c-0.736-0.744-1.624-1.328-2.608-1.736c-1.952-0.808-4.16-0.808-6.112,0
		c-0.984,0.408-1.864,0.992-2.608,1.736l-47.992,47.992C127.216,53.463,127.216,58.519,130.344,61.647z"/>
</g>
<g>
</g>
<g>
</g>
<g>
</g>
<g>
</g>
<g>
</g>
<g>
</g>
<g>
</g>
<g>
</g>
<g>
</g>
<g>
</g>
<g>
</g>
<g>
</g>
<g>
</g>
<g>
</g>
<g>
</g>
</svg>
