<?xml version="1.0" encoding="iso-8859-1"?>
<!-- Generator: Adobe Illustrator 19.0.0, SVG Export Plug-In . SVG Version: 6.00 Build 0)  -->
<svg version="1.1" id="Capa_1" xmlns="http://www.w3.org/2000/svg" xmlns:xlink="http://www.w3.org/1999/xlink" x="0px" y="0px"
	 viewBox="0 0 368 368" style="enable-background:new 0 0 368 368;" xml:space="preserve">
<path style="fill:#CCE4FF;" d="M73.12,120.084c7.76-54.32,54.48-96.08,110.88-96.08s103.12,41.76,110.88,96.08
	c0.4-0.08,0.72-0.08,1.12-0.08c35.36,0,64,28.64,64,64s-28.64,64-64,64H72c-35.36,0-64-28.64-64-64s28.64-64,64-64
	C72.4,120.004,72.72,120.004,73.12,120.084z"/>
<g>
	<path style="fill:#007AFF;" d="M301.536,112.284c-11.176-55.32-60.48-96.28-117.536-96.28s-106.36,40.96-117.536,96.28
		C29.344,115.132,0,146.172,0,184.004c0,39.696,32.296,72,72,72h32c4.424,0,8-3.584,8-8s-3.576-8-8-8H72c-30.872,0-56-25.12-56-56
		s25.128-56,55.576-56.072c0.096,0.016,0.2,0.016,0.304,0.032c0.04,0.008,0.064,0.032,0.104,0.04
		c0.064,0.008,0.12-0.016,0.184-0.008c0.32,0.04,0.632,0.088,0.952,0.088c4.168,0,8.464,0.544,12.76,1.624
		c0.312,0.136,0.64,0.248,0.976,0.336c14.08,3.84,26.344,13.312,33.656,25.968c2.208,3.824,7.104,5.136,10.928,2.92
		c3.832-2.208,5.144-7.104,2.928-10.928c-9.208-15.936-24.528-27.936-42.168-33.072c-0.368-0.168-0.752-0.304-1.152-0.408
		c-2.8-0.752-5.6-1.32-8.4-1.728C93.328,66.188,135.456,32.004,184,32.004s90.672,34.184,101.352,80.792
		c-2.8,0.408-5.608,0.968-8.4,1.728c-0.392,0.104-0.768,0.24-1.136,0.4c-17.64,5.136-32.968,17.144-42.184,33.08
		c-2.208,3.832-0.896,8.72,2.928,10.928c3.816,2.216,8.712,0.904,10.928-2.92c7.312-12.656,19.576-22.12,33.656-25.968
		c0.328-0.096,0.656-0.2,0.968-0.336c4.296-1.08,8.584-1.624,12.768-1.624c0.512,0.008,0.616,0.024,1.12-0.08
		c30.872,0,56,25.12,56,56s-25.128,56-56,56h-32c-4.424,0-8,3.584-8,8s3.576,8,8,8h32c39.704,0,72-32.304,72-72
		C368,146.172,338.656,115.132,301.536,112.284z"/>
	<path style="fill:#007AFF;" d="M221.312,194.02c-3.296-2.936-8.36-2.64-11.288,0.664l-64,72c-2.096,2.352-2.608,5.72-1.32,8.592
		s4.144,4.728,7.296,4.728h47.64l-45.952,59.088c-2.72,3.488-2.088,8.512,1.4,11.224c1.464,1.136,3.192,1.68,4.904,1.68
		c2.384,0,4.744-1.064,6.32-3.088l56-72c1.872-2.408,2.216-5.68,0.872-8.424c-1.344-2.736-4.128-4.48-7.184-4.48h-46.184
		l52.168-58.68C224.912,202.012,224.616,196.964,221.312,194.02z"/>
</g>
<g>
</g>
<g>
</g>
<g>
</g>
<g>
</g>
<g>
</g>
<g>
</g>
<g>
</g>
<g>
</g>
<g>
</g>
<g>
</g>
<g>
</g>
<g>
</g>
<g>
</g>
<g>
</g>
<g>
</g>
</svg>
