<?xml version="1.0" encoding="iso-8859-1"?>
<!-- Generator: Adobe Illustrator 19.0.0, SVG Export Plug-In . SVG Version: 6.00 Build 0)  -->
<svg version="1.1" id="Capa_1" xmlns="http://www.w3.org/2000/svg" xmlns:xlink="http://www.w3.org/1999/xlink" x="0px" y="0px"
	 viewBox="0 0 368 368" style="enable-background:new 0 0 368 368;" xml:space="preserve">
<path style="fill:#CCE4FF;" d="M320,192c0,8.16-0.72,16.24-2.16,24H50.16c-1.44-7.76-2.16-15.84-2.16-24c0-75.12,60.88-136,136-136
	S320,116.88,320,192z"/>
<g>
	<path style="fill:#007AFF;" d="M360,208h-33c0.592-5.256,1-10.584,1-16c0-79.4-64.6-144-144-144S40,112.6,40,192
		c0,5.416,0.408,10.744,1,16H8c-4.416,0-8,3.584-8,8s3.584,8,8,8h42.16h267.68H360c4.416,0,8-3.584,8-8S364.416,208,360,208z
		 M184,64c70.576,0,128,57.424,128,128c0,5.424-0.336,10.784-1,16H57c-0.664-5.216-1-10.576-1-16C56,121.424,113.424,64,184,64z"/>
	<path style="fill:#007AFF;" d="M336,264c0-4.416-3.584-8-8-8H40c-4.416,0-8,3.584-8,8s3.584,8,8,8h288
		C332.416,272,336,268.416,336,264z"/>
	<path style="fill:#007AFF;" d="M72,304c-4.416,0-8,3.584-8,8s3.584,8,8,8h224c4.416,0,8-3.584,8-8s-3.584-8-8-8H72z"/>
</g>
<g>
</g>
<g>
</g>
<g>
</g>
<g>
</g>
<g>
</g>
<g>
</g>
<g>
</g>
<g>
</g>
<g>
</g>
<g>
</g>
<g>
</g>
<g>
</g>
<g>
</g>
<g>
</g>
<g>
</g>
</svg>
