<?xml version="1.0" encoding="iso-8859-1"?>
<!-- Generator: Adobe Illustrator 19.0.0, SVG Export Plug-In . SVG Version: 6.00 Build 0)  -->
<svg version="1.1" id="Capa_1" xmlns="http://www.w3.org/2000/svg" xmlns:xlink="http://www.w3.org/1999/xlink" x="0px" y="0px"
	 viewBox="0 0 368 368" style="enable-background:new 0 0 368 368;" xml:space="preserve">
<path style="fill:#CCE4FF;" d="M73.12,184.08C80.88,129.76,127.6,88,184,88c10.16,0,19.92,1.36,29.28,3.92
	c42.64,11.52,75.2,47.6,81.6,92.16c0.4-0.08,0.72-0.08,1.12-0.08c13.84,0,26.56,4.4,37.04,11.84C349.36,207.44,360,226.48,360,248
	c0,35.36-28.64,64-64,64H72c-35.36,0-64-28.64-64-64s28.64-64,64-64C72.4,184,72.72,184,73.12,184.08z"/>
<path style="fill:#007AFF;" d="M368,136c0-48.52-39.48-88-88-88c-27.696,0-53.352,13.032-69.944,34.936
	C201.528,81.024,192.792,80,184,80c-57.064,0-106.36,40.96-117.528,96.28C29.352,179.12,0,210.168,0,248c0,39.696,32.304,72,72,72
	h224c39.696,0,72-32.304,72-72c0-20.08-8.488-39.16-23.04-52.688C359.696,179.208,368,158.056,368,136z M280,64
	c39.696,0,72,32.304,72,72c0,18.664-7.32,36.48-20.16,49.816c-9.288-5.368-19.52-8.544-30.208-9.376
	c-8.128-40.64-36.56-74.064-75.096-88.624C240.08,72.744,259.392,64,280,64z M296,304H72c-30.88,0-56-25.12-56-56
	s25.12-56,55.6-56.072c0.088,0.016,0.184,0.016,0.28,0.024c0.04,0.008,0.072,0.032,0.112,0.04c0.368,0.056,0.736,0.08,1.104,0.08
	c0.008,0,0.024,0,0.032,0c4.168,0,8.456,0.544,12.752,1.624c0.312,0.136,0.64,0.248,0.976,0.336
	c14.08,3.84,26.352,13.312,33.664,25.968c2.208,3.824,7.096,5.136,10.928,2.92c3.824-2.208,5.136-7.104,2.92-10.928
	c-9.208-15.936-24.528-27.936-42.168-33.072c-0.368-0.168-0.752-0.304-1.152-0.408c-2.8-0.752-5.6-1.32-8.4-1.72
	C93.328,130.184,135.448,96,184,96c9.208,0,18.352,1.224,27.168,3.64c0.008,0,0.008,0,0.016,0s0.008,0.008,0.016,0.008
	c37.336,10.088,65.664,39.896,74.176,77.144c-2.8,0.408-5.608,0.968-8.408,1.728c-0.4,0.104-0.784,0.24-1.152,0.408
	c-14.248,4.168-26.984,12.744-36.024,24.208c-0.024,0.032-0.064,0.04-0.088,0.072c-0.024,0.032-0.04,0.064-0.064,0.096
	c-0.032,0.04-0.064,0.064-0.096,0.104s-0.032,0.088-0.064,0.128c-2.2,2.68-4.2,5.544-5.896,8.568
	c-2.16,3.856-0.776,8.728,3.08,10.888c1.224,0.68,2.568,1.008,3.888,1.008c2.808,0,5.528-1.48,6.992-4.096
	c1.272-2.28,2.768-4.448,4.44-6.456c0.032-0.04,0.04-0.088,0.064-0.128c0.024-0.032,0.072-0.04,0.096-0.08
	c7.184-9.216,17.496-16.032,29.016-19.208c0.328-0.088,0.648-0.2,0.952-0.328c4.304-1.08,8.592-1.624,12.768-1.624
	c0.504,0,0.624,0.016,1.12-0.08c11.656,0,22.856,3.584,32.408,10.36l0,0C343.184,212.872,352,229.928,352,248
	C352,278.88,326.88,304,296,304z"/>
<g>
</g>
<g>
</g>
<g>
</g>
<g>
</g>
<g>
</g>
<g>
</g>
<g>
</g>
<g>
</g>
<g>
</g>
<g>
</g>
<g>
</g>
<g>
</g>
<g>
</g>
<g>
</g>
<g>
</g>
</svg>
