<?xml version="1.0" encoding="iso-8859-1"?>
<!-- Generator: Adobe Illustrator 19.0.0, SVG Export Plug-In . SVG Version: 6.00 Build 0)  -->
<svg version="1.1" id="Capa_1" xmlns="http://www.w3.org/2000/svg" xmlns:xlink="http://www.w3.org/1999/xlink" x="0px" y="0px"
	 viewBox="0 0 368 368" style="enable-background:new 0 0 368 368;" xml:space="preserve">
<path style="fill:#CCE4FF;" d="M73.12,184.108c7.76-54.32,54.48-96.08,110.88-96.08c10.16,0,19.92,1.36,29.28,3.92
	c-8.4,12.64-13.28,27.76-13.28,44.08c0,31.92,18.72,59.52,45.84,72.32c10.32,4.96,21.92,7.68,34.16,7.68
	c20.32,0,38.96-7.6,53.04-20.16c16.32,11.6,26.96,30.64,26.96,52.16c0,35.36-28.64,64-64,64H72c-35.36,0-64-28.64-64-64
	s28.64-64,64-64C72.4,184.028,72.72,184.028,73.12,184.108z"/>
<path style="fill:#007AFF;" d="M359.36,171.172c1.008-2.376,0.816-5.096-0.528-7.304s-3.672-3.624-6.248-3.816
	c-8.712-0.64-15.608-3.224-23.328-6.936C304.192,141.284,288,115.74,288,88.028c0-8.328,2.392-17.728,7.304-28.736
	c1.064-2.376,0.896-5.128-0.44-7.36c-1.336-2.24-3.672-3.68-6.28-3.872c-1.672-0.12-4.12-0.096-6.312-0.056L280,48.028
	c-27.688,0-53.352,13.032-69.944,34.936c-8.528-1.912-17.264-2.936-26.056-2.936c-57.064,0-106.36,40.96-117.528,96.28
	C29.352,179.148,0,210.196,0,248.028c0,39.696,32.304,72,72,72h224c39.696,0,72-32.304,72-72c0-20.136-8.528-39.264-23.144-52.8
	C350.52,188.708,355.16,181.004,359.36,171.172z M276.248,64.124C273.4,72.692,272,80.588,272,88.028
	c0,33.872,19.792,65.096,50.368,79.528c5.296,2.544,11.04,5.016,17.728,6.664c-3.56,6.36-7.552,11.376-12.384,15.68
	c-13.104,11.688-30.048,18.128-47.712,18.128c-10.856,0-21.184-2.32-30.744-6.912C224.192,189.284,208,163.74,208,136.028
	c0-14.184,4.128-27.896,11.944-39.648c0.008-0.008,0.008-0.016,0.016-0.016C232.632,77.164,253.472,65.3,276.248,64.124z
	 M296,304.028H72c-30.88,0-56-25.12-56-56s25.12-56,55.6-56.072c0.088,0.016,0.184,0.016,0.28,0.024
	c0.04,0.008,0.072,0.032,0.112,0.04c0.368,0.056,0.736,0.08,1.104,0.08c0.008,0,0.024,0,0.032,0c4.168,0,8.456,0.544,12.752,1.624
	c0.312,0.136,0.64,0.248,0.976,0.336c14.08,3.84,26.352,13.312,33.664,25.968c2.208,3.824,7.096,5.136,10.928,2.92
	c3.824-2.208,5.136-7.104,2.92-10.928c-9.208-15.936-24.528-27.936-42.168-33.072c-0.368-0.168-0.752-0.304-1.152-0.408
	c-2.8-0.752-5.6-1.32-8.4-1.72c10.68-46.608,52.8-80.792,101.352-80.792c5.696,0,11.36,0.52,16.944,1.456
	C195.088,109.42,192,122.54,192,136.028c0,33.872,19.792,65.096,50.376,79.528c11.688,5.624,24.344,8.472,37.624,8.472
	c19.304,0,37.888-6.336,53.064-17.88C345,216.716,352,231.956,352,248.028C352,278.908,326.88,304.028,296,304.028z"/>
<g>
</g>
<g>
</g>
<g>
</g>
<g>
</g>
<g>
</g>
<g>
</g>
<g>
</g>
<g>
</g>
<g>
</g>
<g>
</g>
<g>
</g>
<g>
</g>
<g>
</g>
<g>
</g>
<g>
</g>
</svg>
