<?xml version="1.0" encoding="iso-8859-1"?>
<!-- Generator: Adobe Illustrator 19.0.0, SVG Export Plug-In . SVG Version: 6.00 Build 0)  -->
<svg version="1.1" id="Capa_1" xmlns="http://www.w3.org/2000/svg" xmlns:xlink="http://www.w3.org/1999/xlink" x="0px" y="0px"
	 viewBox="0 0 368 368" style="enable-background:new 0 0 368 368;" xml:space="preserve">
<path style="fill:#CCE4FF;" d="M73.12,104.08C80.88,49.76,127.6,8,184,8s103.12,41.76,110.88,96.08c0.4-0.08,0.72-0.08,1.12-0.08
	c35.36,0,64,28.64,64,64s-28.64,64-64,64H72c-35.36,0-64-28.64-64-64s28.64-64,64-64C72.4,104,72.72,104,73.12,104.08z"/>
<g>
	<path style="fill:#007AFF;" d="M301.536,96.28C290.36,40.96,241.056,0,184,0C126.936,0,77.64,40.96,66.472,96.28
		C29.352,99.12,0,130.168,0,168c0,39.696,32.304,72,72,72h16c4.416,0,8-3.584,8-8s-3.584-8-8-8H72c-30.88,0-56-25.12-56-56
		s25.12-56,55.6-56.072c0.088,0.016,0.184,0.016,0.28,0.024c0.04,0.008,0.072,0.032,0.112,0.04c0.064,0.008,0.12-0.016,0.184-0.008
		c0.32,0.04,0.632,0.096,0.952,0.096c4.168,0,8.456,0.544,12.752,1.624c0.312,0.136,0.64,0.248,0.976,0.336
		c14.08,3.84,26.352,13.312,33.664,25.968c2.2,3.816,7.088,5.136,10.928,2.92c3.824-2.208,5.136-7.104,2.92-10.928
		c-9.208-15.936-24.528-27.936-42.168-33.072c-0.368-0.168-0.752-0.304-1.152-0.408c-2.8-0.752-5.6-1.32-8.4-1.72
		C93.328,50.184,135.448,16,184,16c48.544,0,90.672,34.184,101.352,80.792c-2.8,0.408-5.608,0.968-8.4,1.728
		c-0.392,0.104-0.768,0.24-1.136,0.4c-17.64,5.136-32.968,17.144-42.184,33.08c-2.208,3.832-0.896,8.72,2.928,10.928
		c3.808,2.216,8.712,0.896,10.928-2.92c7.312-12.656,19.576-22.12,33.656-25.968c0.328-0.096,0.656-0.2,0.968-0.336
		c4.296-1.08,8.584-1.624,12.768-1.624c0.528,0,0.616,0.024,1.12-0.08c30.872,0,56,25.12,56,56s-25.128,56-56,56h-16
		c-4.424,0-8,3.584-8,8s3.576,8,8,8h16c39.704,0,72-32.304,72-72C368,130.168,338.656,99.128,301.536,96.28z"/>
	<path style="fill:#007AFF;" d="M144,240c8.824,0,16-7.176,16-16s-7.176-16-16-16s-16,7.176-16,16S135.176,240,144,240z M152,224
		l-7.992,0.024C144,224.016,144,224.008,144,224H152z"/>
	<path style="fill:#007AFF;" d="M200,288c0-8.824-7.176-16-16-16s-16,7.176-16,16c0,8.824,7.176,16,16,16S200,296.824,200,288z
		 M192,288l-7.992,0.024C184,288.016,184,288.008,184,288H192z"/>
	<path style="fill:#007AFF;" d="M120,288c0-8.824-7.176-16-16-16s-16,7.176-16,16c0,8.824,7.176,16,16,16S120,296.824,120,288z
		 M112,288l-7.992,0.024C104,288.016,104,288.008,104,288H112z"/>
	<path style="fill:#007AFF;" d="M280,288c0-8.824-7.176-16-16-16s-16,7.176-16,16c0,8.824,7.176,16,16,16S280,296.824,280,288z
		 M272,288l-7.992,0.024C264,288.016,264,288.008,264,288H272z"/>
	<path style="fill:#007AFF;" d="M224,240c8.824,0,16-7.176,16-16s-7.176-16-16-16s-16,7.176-16,16S215.176,240,224,240z M232,224
		l-7.992,0.024C224,224.016,224,224.008,224,224H232z"/>
	<path style="fill:#007AFF;" d="M144,368c8.824,0,16-7.176,16-16c0-8.824-7.176-16-16-16s-16,7.176-16,16
		C128,360.824,135.176,368,144,368z M152,352l-7.992,0.024C144,352.016,144,352.008,144,352H152z"/>
	<path style="fill:#007AFF;" d="M224,368c8.824,0,16-7.176,16-16c0-8.824-7.176-16-16-16s-16,7.176-16,16
		C208,360.824,215.176,368,224,368z M232,352l-7.992,0.024C224,352.016,224,352.008,224,352H232z"/>
</g>
<g>
</g>
<g>
</g>
<g>
</g>
<g>
</g>
<g>
</g>
<g>
</g>
<g>
</g>
<g>
</g>
<g>
</g>
<g>
</g>
<g>
</g>
<g>
</g>
<g>
</g>
<g>
</g>
<g>
</g>
</svg>
