<?xml version="1.0" encoding="iso-8859-1"?>
<!-- Generator: Adobe Illustrator 19.0.0, SVG Export Plug-In . SVG Version: 6.00 Build 0)  -->
<svg version="1.1" id="Capa_1" xmlns="http://www.w3.org/2000/svg" xmlns:xlink="http://www.w3.org/1999/xlink" x="0px" y="0px"
	 viewBox="0 0 368 368" style="enable-background:new 0 0 368 368;" xml:space="preserve">
<path style="fill:#CCE4FF;" d="M73.12,120.08C80.88,65.76,127.6,24,184,24c10.16,0,19.92,1.36,29.28,3.92
	c42.64,11.52,75.2,47.6,81.6,92.16c0.4-0.08,0.72-0.08,1.12-0.08c13.84,0,26.56,4.4,37.04,11.84C349.36,143.44,360,162.48,360,184
	c0,35.36-28.64,64-64,64H72c-35.36,0-64-28.64-64-64s28.64-64,64-64C72.4,120,72.72,120,73.12,120.08z"/>
<g>
	<path style="fill:#007AFF;" d="M301.64,112.216C290.464,56.904,241.048,16,184,16c-57.056,0-106.464,40.904-117.64,96.216
		C29.288,115.104,0,146.192,0,184c0,39.696,32.304,72,72,72h176c4.424,0,8-3.584,8-8s-3.576-8-8-8H72c-30.88,0-56-25.12-56-56
		s25.12-56,55.6-56.072c2.144,0.432,4.376-0.064,6.168-1.336c1.784-1.272,2.968-3.216,3.28-5.384C88.304,70.352,132.568,32,184,32
		s95.696,38.352,102.96,89.208c0.312,2.168,1.288,4.16,3.08,5.424c1.784,1.272,3.808,1.8,5.96,1.368c30.872,0,56,25.12,56,56
		c0,4.416,3.576,8,8,8s8-3.584,8-8C368,146.2,338.72,115.112,301.64,112.216z"/>
	<path style="fill:#007AFF;" d="M320,200c0-4.416-3.576-8-8-8H120c-4.416,0-8,3.584-8,8s3.584,8,8,8h192
		C316.424,208,320,204.416,320,200z"/>
	<path style="fill:#007AFF;" d="M360,240h-64c-4.424,0-8,3.584-8,8s3.576,8,8,8h64c4.424,0,8-3.584,8-8S364.424,240,360,240z"/>
	<path style="fill:#007AFF;" d="M360,288H120c-4.416,0-8,3.584-8,8s3.584,8,8,8h240c4.424,0,8-3.584,8-8S364.424,288,360,288z"/>
	<path style="fill:#007AFF;" d="M312,336H24c-4.416,0-8,3.584-8,8s3.584,8,8,8h288c4.424,0,8-3.584,8-8S316.424,336,312,336z"/>
	<path style="fill:#007AFF;" d="M80,296c0-4.416-3.584-8-8-8H8c-4.416,0-8,3.584-8,8s3.584,8,8,8h64C76.416,304,80,300.416,80,296z"
		/>
</g>
<g>
</g>
<g>
</g>
<g>
</g>
<g>
</g>
<g>
</g>
<g>
</g>
<g>
</g>
<g>
</g>
<g>
</g>
<g>
</g>
<g>
</g>
<g>
</g>
<g>
</g>
<g>
</g>
<g>
</g>
</svg>
