<?xml version="1.0" encoding="iso-8859-1"?>
<!-- Generator: Adobe Illustrator 19.0.0, SVG Export Plug-In . SVG Version: 6.00 Build 0)  -->
<svg version="1.1" id="Capa_1" xmlns="http://www.w3.org/2000/svg" xmlns:xlink="http://www.w3.org/1999/xlink" x="0px" y="0px"
	 viewBox="0 0 368 368" style="enable-background:new 0 0 368 368;" xml:space="preserve">
<g>
	<path style="fill:#007AFF;" d="M8,48h304c4.424,0,8-3.584,8-8s-3.576-8-8-8H8c-4.424,0-8,3.584-8,8S3.576,48,8,48z"/>
	<path style="fill:#007AFF;" d="M80,88c0,4.416,3.576,8,8,8h272c4.424,0,8-3.584,8-8s-3.576-8-8-8H88C83.576,80,80,83.584,80,88z"/>
	<path style="fill:#007AFF;" d="M320,184c0-4.416-3.576-8-8-8H120c-4.424,0-8,3.584-8,8c0,4.416,3.576,8,8,8h192
		C316.424,192,320,188.416,320,184z"/>
	<path style="fill:#007AFF;" d="M288,232c0-4.416-3.576-8-8-8H152c-4.424,0-8,3.584-8,8s3.576,8,8,8h128
		C284.424,240,288,236.416,288,232z"/>
	<path style="fill:#007AFF;" d="M256,280c0-4.416-3.576-8-8-8h-96c-4.424,0-8,3.584-8,8s3.576,8,8,8h96
		C252.424,288,256,284.416,256,280z"/>
	<path style="fill:#007AFF;" d="M152,320c-4.424,0-8,3.584-8,8s3.576,8,8,8h64c4.424,0,8-3.584,8-8s-3.576-8-8-8H152z"/>
	<path style="fill:#007AFF;" d="M8,144h240c4.424,0,8-3.584,8-8s-3.576-8-8-8H8c-4.424,0-8,3.584-8,8S3.576,144,8,144z"/>
</g>
<g>
</g>
<g>
</g>
<g>
</g>
<g>
</g>
<g>
</g>
<g>
</g>
<g>
</g>
<g>
</g>
<g>
</g>
<g>
</g>
<g>
</g>
<g>
</g>
<g>
</g>
<g>
</g>
<g>
</g>
</svg>
