<?xml version="1.0" encoding="iso-8859-1"?>
<!-- Generator: Adobe Illustrator 19.0.0, SVG Export Plug-In . SVG Version: 6.00 Build 0)  -->
<svg version="1.1" id="Capa_1" xmlns="http://www.w3.org/2000/svg" xmlns:xlink="http://www.w3.org/1999/xlink" x="0px" y="0px"
	 viewBox="0 0 368 368" style="enable-background:new 0 0 368 368;" xml:space="preserve">
<path style="fill:#CCE4FF;" d="M184,8c32.08,0,62.16,8.56,88,23.52C248.08,45.36,227.52,64.8,212.56,88
	c-9.6,14.64-17.04,30.8-21.92,48c-4.32,15.28-6.64,31.36-6.64,48s2.32,32.72,6.64,48c4.88,17.2,12.32,33.36,21.92,48
	c14.96,23.2,35.52,42.64,59.44,56.48C246.16,351.44,216.08,360,184,360C86.8,360,8,281.2,8,184S86.8,8,184,8z"/>
<path style="fill:#007AFF;" d="M361.056,133.816c-5.048-17.8-12.752-34.672-22.888-50.144l0,0c0,0,0-0.008-0.008-0.008
	c-0.008-0.016-0.016-0.032-0.024-0.04s-0.016-0.016-0.016-0.024c-15.544-24.08-37.016-44.48-62.104-59
	c-0.008-0.008-0.024-0.008-0.032-0.016C248.192,8.496,216.392,0,184,0C82.544,0,0,82.544,0,184s82.544,184,184,184
	c32.392,0,64.192-8.496,91.976-24.584c0.008-0.008,0.024-0.008,0.032-0.016c25.088-14.52,46.56-34.92,62.104-59
	c0.008-0.008,0.016-0.016,0.016-0.024c0.008-0.016,0.016-0.032,0.024-0.04c0,0,0-0.008,0.008-0.008c0,0,0,0,0-0.008
	c10.136-15.48,17.84-32.344,22.888-50.144c0,0,0-0.008,0.008-0.008C365.664,217.88,368,201,368,184s-2.336-33.88-6.944-50.176
	V133.816z M196.872,224c-2.56-10.488-4.168-21.192-4.688-32h159.624c-0.512,10.808-2.12,21.512-4.688,32H196.872z M216.944,96
	h110.112c6.256,10.096,11.368,20.824,15.336,32H201.608C205.576,116.824,210.688,106.096,216.944,96z M196.808,144H347.2
	c2.56,10.48,4.056,21.2,4.568,32H192.24C192.752,165.2,194.248,154.48,196.808,144z M315.728,80h-87.456
	C240.384,64.6,255.176,51.208,272,40.832C288.832,51.208,303.616,64.6,315.728,80z M16,184C16,91.36,91.36,16,184,16
	c25.048,0,49.672,5.616,72.032,16.232c-19.944,13.704-37.136,31.216-50.144,51.36c-0.008,0.008-0.016,0.016-0.016,0.024
	c-0.008,0.016-0.016,0.032-0.024,0.04c0,0,0,0.008-0.008,0.008l0,0c-10.136,15.48-17.84,32.352-22.888,50.144
	c0,0,0,0.008-0.008,0.008C178.336,150.12,176,167,176,184s2.336,33.88,6.944,50.176v0.008l0,0
	c5.048,17.8,12.752,34.672,22.888,50.144c0,0,0,0,0,0.008c0,0,0,0.008,0.008,0.008c0.008,0.016,0.016,0.032,0.024,0.04
	c0,0.008,0.008,0.008,0.016,0.016c13.008,20.152,30.2,37.664,50.152,51.376C233.672,346.384,209.048,352,184,352
	C91.36,352,16,276.64,16,184z M272,327.168c-16.856-10.392-31.8-23.728-43.92-39.168h87.84
	C303.8,303.432,288.856,316.768,272,327.168z M326.968,272H217.032c-6.272-10.112-11.488-20.808-15.448-32h140.832
	C338.448,251.192,333.24,261.888,326.968,272z"/>
<g>
</g>
<g>
</g>
<g>
</g>
<g>
</g>
<g>
</g>
<g>
</g>
<g>
</g>
<g>
</g>
<g>
</g>
<g>
</g>
<g>
</g>
<g>
</g>
<g>
</g>
<g>
</g>
<g>
</g>
</svg>
