<?xml version="1.0" encoding="iso-8859-1"?>
<!-- Generator: Adobe Illustrator 19.0.0, SVG Export Plug-In . SVG Version: 6.00 Build 0)  -->
<svg version="1.1" id="Capa_1" xmlns="http://www.w3.org/2000/svg" xmlns:xlink="http://www.w3.org/1999/xlink" x="0px" y="0px"
	 viewBox="0 0 368 368" style="enable-background:new 0 0 368 368;" xml:space="preserve">
<path style="fill:#CCE4FF;" d="M73.12,120.08C80.88,65.76,127.6,24,184,24s103.12,41.76,110.88,96.08c0.4-0.08,0.72-0.08,1.12-0.08
	c35.36,0,64,28.64,64,64s-28.64,64-64,64H72c-35.36,0-64-28.64-64-64s28.64-64,64-64C72.4,120,72.72,120,73.12,120.08z"/>
<g>
	<path style="fill:#007AFF;" d="M301.536,112.28C290.36,56.96,241.056,16,184,16S77.64,56.96,66.464,112.28
		C29.344,115.128,0,146.168,0,184c0,39.696,32.296,72,72,72h16c4.424,0,8-3.584,8-8s-3.576-8-8-8H72c-30.872,0-56-25.12-56-56
		s25.128-56,55.576-56.072c0.096,0.016,0.2,0.016,0.304,0.032c0.04,0.008,0.064,0.032,0.104,0.04
		c0.064,0.008,0.12-0.016,0.184-0.008c0.32,0.04,0.632,0.088,0.952,0.088c4.168,0,8.464,0.544,12.76,1.624
		c0.312,0.136,0.64,0.248,0.976,0.336c14.08,3.84,26.344,13.312,33.656,25.968c2.208,3.824,7.112,5.136,10.928,2.92
		c3.832-2.208,5.144-7.104,2.928-10.928c-9.208-15.936-24.528-27.936-42.168-33.072c-0.368-0.168-0.752-0.304-1.152-0.408
		c-2.8-0.752-5.6-1.32-8.4-1.728C93.328,66.184,135.456,32,184,32s90.672,34.184,101.352,80.792c-2.8,0.408-5.608,0.968-8.4,1.728
		c-0.392,0.104-0.768,0.24-1.136,0.4c-17.64,5.136-32.968,17.144-42.184,33.08c-2.208,3.832-0.896,8.72,2.928,10.928
		c3.816,2.216,8.712,0.904,10.928-2.92c7.312-12.656,19.576-22.12,33.656-25.968c0.328-0.096,0.656-0.2,0.968-0.336
		c4.296-1.08,8.584-1.624,12.768-1.624c0.512,0.008,0.608,0.024,1.12-0.08c30.872,0,56,25.12,56,56s-25.128,56-56,56h-16
		c-4.424,0-8,3.584-8,8s3.576,8,8,8h16c39.704,0,72-32.304,72-72C368,146.168,338.656,115.128,301.536,112.28z"/>
	<path style="fill:#007AFF;" d="M192,232v-48c0-4.416-3.576-8-8-8s-8,3.584-8,8v48c0,4.416,3.576,8,8,8
		C188.424,240,192,236.416,192,232z"/>
	<path style="fill:#007AFF;" d="M144,280v-48c0-4.416-3.576-8-8-8s-8,3.584-8,8v48c0,4.416,3.576,8,8,8S144,284.416,144,280z"/>
	<path style="fill:#007AFF;" d="M240,280v-48c0-4.416-3.576-8-8-8s-8,3.584-8,8v48c0,4.416,3.576,8,8,8S240,284.416,240,280z"/>
	<path style="fill:#007AFF;" d="M120,336c0,8.824,7.176,16,16,16s16-7.176,16-16c0-8.824-7.176-16-16-16S120,327.176,120,336z
		 M144,336l-7.992,0.024C136,336.016,136,336.008,136,336H144z"/>
	<path style="fill:#007AFF;" d="M216,336c0,8.824,7.176,16,16,16s16-7.176,16-16c0-8.824-7.176-16-16-16S216,327.176,216,336z
		 M240,336l-7.992,0.024C232,336.016,232,336.008,232,336H240z"/>
	<path style="fill:#007AFF;" d="M168,288c0,8.824,7.176,16,16,16s16-7.176,16-16c0-8.824-7.176-16-16-16S168,279.176,168,288z
		 M192,288l-7.992,0.024C184,288.016,184,288.008,184,288H192z"/>
</g>
<g>
</g>
<g>
</g>
<g>
</g>
<g>
</g>
<g>
</g>
<g>
</g>
<g>
</g>
<g>
</g>
<g>
</g>
<g>
</g>
<g>
</g>
<g>
</g>
<g>
</g>
<g>
</g>
<g>
</g>
</svg>
