<?xml version="1.0" encoding="iso-8859-1"?>
<!-- Generator: Adobe Illustrator 19.0.0, SVG Export Plug-In . SVG Version: 6.00 Build 0)  -->
<svg version="1.1" id="Capa_1" xmlns="http://www.w3.org/2000/svg" xmlns:xlink="http://www.w3.org/1999/xlink" x="0px" y="0px"
	 viewBox="0 0 368 368" style="enable-background:new 0 0 368 368;" xml:space="preserve">
<path style="fill:#CCE4FF;" d="M73.12,184.08C80.88,129.76,127.6,88,184,88c10.16,0,19.92,1.36,29.28,3.92
	C204.88,104.56,200,119.68,200,136c0,31.92,18.72,59.52,45.84,72.32c10.32,4.96,21.92,7.68,34.16,7.68
	c20.32,0,38.96-7.6,53.04-20.16C349.36,207.44,360,226.48,360,248c0,35.36-28.64,64-64,64H72c-35.36,0-64-28.64-64-64
	s28.64-64,64-64C72.4,184,72.72,184,73.12,184.08z"/>
<path style="fill:#007AFF;" d="M368,136c0-48.52-39.48-88-88-88c-27.696,0-53.352,13.032-69.944,34.936
	C201.528,81.024,192.792,80,184,80c-57.064,0-106.36,40.96-117.528,96.28C29.352,179.12,0,210.168,0,248c0,39.696,32.304,72,72,72
	h224c39.696,0,72-32.304,72-72c0-20.08-8.488-39.16-23.04-52.688C359.696,179.208,368,158.056,368,136z M280,64
	c39.696,0,72,32.304,72,72c0,20.592-8.84,40.216-24.288,53.872C314.608,201.56,297.664,208,280,208
	c-10.856,0-21.184-2.32-30.744-6.912C224.192,189.256,208,163.712,208,136c0-14.184,4.128-27.896,11.944-39.648
	c0.008-0.008,0.008-0.016,0.016-0.016C233.328,76.088,255.776,64,280,64z M296,304H72c-30.88,0-56-25.12-56-56s25.12-56,55.6-56.072
	c0.088,0.016,0.184,0.016,0.28,0.024c0.04,0.008,0.072,0.032,0.112,0.04c0.368,0.056,0.736,0.08,1.104,0.08c0.008,0,0.024,0,0.032,0
	c4.168,0,8.456,0.544,12.752,1.624c0.312,0.136,0.64,0.248,0.976,0.336c14.08,3.84,26.352,13.312,33.664,25.968
	c2.2,3.824,7.096,5.136,10.928,2.92c3.824-2.208,5.136-7.104,2.92-10.928c-9.208-15.936-24.528-27.936-42.168-33.072
	c-0.368-0.168-0.752-0.304-1.152-0.408c-2.8-0.752-5.6-1.32-8.4-1.72C93.328,130.184,135.448,96,184,96
	c5.696,0,11.36,0.52,16.944,1.456C195.088,109.392,192,122.512,192,136c0,33.872,19.792,65.096,50.376,79.528
	C254.064,221.152,266.72,224,280,224c19.312,0,37.896-6.336,53.064-17.88C345,216.688,352,231.928,352,248
	C352,278.88,326.88,304,296,304z"/>
<g>
</g>
<g>
</g>
<g>
</g>
<g>
</g>
<g>
</g>
<g>
</g>
<g>
</g>
<g>
</g>
<g>
</g>
<g>
</g>
<g>
</g>
<g>
</g>
<g>
</g>
<g>
</g>
<g>
</g>
</svg>
