<?xml version="1.0" encoding="iso-8859-1"?>
<!-- Generator: Adobe Illustrator 19.0.0, SVG Export Plug-In . SVG Version: 6.00 Build 0)  -->
<svg version="1.1" id="Capa_1" xmlns="http://www.w3.org/2000/svg" xmlns:xlink="http://www.w3.org/1999/xlink" x="0px" y="0px"
	 viewBox="0 0 368 368" style="enable-background:new 0 0 368 368;" xml:space="preserve">
<path style="fill:#CCE4FF;" d="M73.12,152.11C80.88,97.79,127.6,56.03,184,56.03c10.16,0,19.92,1.36,29.28,3.92
	C204.88,72.59,200,87.71,200,104.03c0,31.92,18.72,59.52,45.84,72.32c10.32,4.96,21.92,7.68,34.16,7.68
	c20.32,0,38.96-7.6,53.04-20.16c16.32,11.6,26.96,30.64,26.96,52.16c0,35.36-28.64,64-64,64H72c-35.36,0-64-28.64-64-64
	s28.64-64,64-64C72.4,152.03,72.72,152.03,73.12,152.11z"/>
<g>
	<path style="fill:#007AFF;" d="M359.36,139.174c1.008-2.376,0.816-5.096-0.528-7.304s-3.672-3.624-6.248-3.816
		c-8.712-0.64-15.608-3.224-23.328-6.936C304.192,109.286,288,83.742,288,56.03c0-8.328,2.392-17.728,7.304-28.736
		c1.064-2.376,0.896-5.128-0.44-7.36c-1.336-2.24-3.672-3.68-6.28-3.872c-1.672-0.128-4.128-0.096-6.312-0.056L280,16.03
		c-27.688,0-53.352,13.032-69.944,34.936c-8.528-1.912-17.264-2.936-26.056-2.936c-57.064,0-106.36,40.96-117.528,96.28
		C29.352,147.15,0,178.198,0,216.03c0,39.696,32.304,72,72,72h32c4.416,0,8-3.584,8-8s-3.584-8-8-8H72c-30.88,0-56-25.12-56-56
		s25.12-56,55.6-56.072c0.088,0.016,0.184,0.016,0.28,0.024c0.04,0.008,0.072,0.032,0.112,0.04c0.368,0.056,0.736,0.08,1.104,0.08
		c0.008,0,0.024,0,0.032,0c4.168,0,8.456,0.544,12.752,1.624c0.312,0.136,0.64,0.248,0.976,0.336
		c14.08,3.84,26.352,13.312,33.664,25.968c2.2,3.816,7.096,5.128,10.928,2.92c3.824-2.208,5.136-7.104,2.92-10.928
		c-9.208-15.936-24.528-27.936-42.168-33.072c-0.368-0.168-0.752-0.304-1.152-0.408c-2.8-0.752-5.6-1.32-8.4-1.72
		C93.328,98.214,135.448,64.03,184,64.03c5.696,0,11.36,0.52,16.944,1.456C195.088,77.422,192,90.542,192,104.03
		c0,33.872,19.792,65.096,50.376,79.528c11.688,5.624,24.344,8.472,37.624,8.472c19.304,0,37.888-6.336,53.064-17.88
		C345,184.718,352,199.958,352,216.03c0,30.88-25.12,56-56,56h-32c-4.416,0-8,3.584-8,8s3.584,8,8,8h32c39.696,0,72-32.304,72-72
		c0-20.136-8.528-39.264-23.144-52.8C350.52,156.71,355.16,149.006,359.36,139.174z M249.256,169.118
		C224.192,157.286,208,131.742,208,104.03c0-14.184,4.128-27.896,11.944-39.648c0.008-0.008,0.008-0.016,0.016-0.016
		c12.672-19.192,33.512-31.056,56.288-32.232C273.4,40.694,272,48.59,272,56.03c0,33.872,19.792,65.096,50.368,79.528
		c5.296,2.544,11.04,5.016,17.728,6.664c-3.56,6.36-7.552,11.376-12.384,15.68C314.608,169.59,297.664,176.03,280,176.03
		C269.144,176.03,258.816,173.71,249.256,169.118z"/>
	<path style="fill:#007AFF;" d="M221.656,210.374c-3.128-3.128-8.184-3.128-11.312,0l-64,64c-2.288,2.288-2.976,5.728-1.736,8.72
		c1.24,2.984,4.16,4.936,7.392,4.936h44.688l-50.344,50.344c-3.128,3.128-3.128,8.184,0,11.312c1.56,1.56,3.608,2.344,5.656,2.344
		s4.096-0.784,5.656-2.344l64-64c2.288-2.288,2.976-5.728,1.736-8.72c-1.24-2.984-4.16-4.936-7.392-4.936h-44.688l50.344-50.344
		C224.784,218.558,224.784,213.502,221.656,210.374z"/>
</g>
<g>
</g>
<g>
</g>
<g>
</g>
<g>
</g>
<g>
</g>
<g>
</g>
<g>
</g>
<g>
</g>
<g>
</g>
<g>
</g>
<g>
</g>
<g>
</g>
<g>
</g>
<g>
</g>
<g>
</g>
</svg>
