<?xml version="1.0" encoding="iso-8859-1"?>
<!-- Generator: Adobe Illustrator 19.0.0, SVG Export Plug-In . SVG Version: 6.00 Build 0)  -->
<svg version="1.1" id="Capa_1" xmlns="http://www.w3.org/2000/svg" xmlns:xlink="http://www.w3.org/1999/xlink" x="0px" y="0px"
	 viewBox="0 0 368 368" style="enable-background:new 0 0 368 368;" xml:space="preserve">
<path style="fill:#CCE4FF;" d="M73.12,136.08C80.88,81.76,127.6,40,184,40s103.12,41.76,110.88,96.08c0.4-0.08,0.72-0.08,1.12-0.08
	c35.36,0,64,28.64,64,64s-28.64,64-64,64H72c-35.36,0-64-28.64-64-64s28.64-64,64-64C72.4,136,72.72,136,73.12,136.08z"/>
<g>
	<path style="fill:#007AFF;" d="M301.536,128.28C290.36,72.96,241.056,32,184,32S77.64,72.96,66.464,128.28
		C29.344,131.128,0,162.168,0,200c0,39.696,32.296,72,72,72h16c4.424,0,8-3.584,8-8c0-4.416-3.576-8-8-8H72
		c-30.872,0-56-25.12-56-56s25.128-56,55.576-56.072c0.096,0.016,0.2,0.016,0.304,0.032c0.04,0.008,0.064,0.032,0.104,0.04
		c0.064,0.008,0.12-0.016,0.176-0.008c0.32,0.04,0.632,0.096,0.952,0.096c4.168,0,8.464,0.544,12.76,1.624
		c0.312,0.136,0.64,0.248,0.976,0.336c14.08,3.84,26.344,13.312,33.656,25.968c2.208,3.824,7.112,5.128,10.928,2.92
		c3.832-2.208,5.144-7.104,2.928-10.928c-9.208-15.936-24.528-27.936-42.168-33.072c-0.368-0.168-0.752-0.304-1.152-0.408
		c-2.8-0.752-5.6-1.32-8.4-1.728C93.328,82.184,135.456,48,184,48s90.672,34.184,101.352,80.792c-2.8,0.408-5.608,0.968-8.4,1.728
		c-0.392,0.104-0.768,0.24-1.136,0.4c-17.64,5.136-32.968,17.144-42.184,33.08c-2.208,3.832-0.896,8.72,2.928,10.928
		c3.816,2.208,8.712,0.896,10.928-2.92c7.312-12.656,19.576-22.12,33.656-25.968c0.328-0.096,0.656-0.2,0.968-0.336
		c4.296-1.08,8.584-1.624,12.768-1.624c0.512,0.008,0.608,0.024,1.12-0.08c30.872,0,56,25.12,56,56s-25.128,56-56,56h-16
		c-4.424,0-8,3.584-8,8c0,4.416,3.576,8,8,8h16c39.704,0,72-32.304,72-72C368,162.168,338.656,131.128,301.536,128.28z"/>
	<path style="fill:#007AFF;" d="M238.4,268.8c2.656-3.536,1.936-8.552-1.6-11.2c-3.528-2.656-8.544-1.928-11.192,1.6L192,304V184
		c0-4.416-3.576-8-8-8s-8,3.584-8,8v120l-33.6-44.8c-2.648-3.528-7.664-4.264-11.192-1.6c-3.536,2.648-4.256,7.664-1.6,11.2l48,64
		c0.104,0.136,0.264,0.184,0.376,0.312c0.528,0.624,1.152,1.104,1.848,1.544c0.288,0.176,0.512,0.408,0.824,0.552
		c1.016,0.48,2.136,0.792,3.344,0.792c1.208,0,2.328-0.312,3.36-0.792c0.304-0.144,0.536-0.376,0.816-0.552
		c0.696-0.44,1.32-0.92,1.848-1.544c0.104-0.128,0.272-0.176,0.376-0.312L238.4,268.8z"/>
</g>
<g>
</g>
<g>
</g>
<g>
</g>
<g>
</g>
<g>
</g>
<g>
</g>
<g>
</g>
<g>
</g>
<g>
</g>
<g>
</g>
<g>
</g>
<g>
</g>
<g>
</g>
<g>
</g>
<g>
</g>
</svg>
